<svg display="none">
    <symbol id="phone-icon" xmlns="http://www.w3.org/2000/svg" width="24" height="24" viewBox="0 0 24 24" fill="none">
        <g clip-path="url(#clip0_1_1340)">
        <path d="M19.23 15.2598L16.69 14.9698C16.08 14.8998 15.48 15.1098 15.05 15.5398L13.21 17.3798C10.38 15.9398 8.06004 13.6298 6.62004 10.7898L8.47004 8.93976C8.90004 8.50976 9.11004 7.90977 9.04004 7.29977L8.75004 4.77977C8.63004 3.76977 7.78004 3.00977 6.76004 3.00977H5.03004C3.90004 3.00977 2.96004 3.94977 3.03004 5.07977C3.56004 13.6198 10.39 20.4398 18.92 20.9698C20.05 21.0398 20.99 20.0998 20.99 18.9698V17.2398C21 16.2298 20.24 15.3798 19.23 15.2598V15.2598Z" fill="#242424"/>
        </g>
        <defs>
        <clipPath id="clip0_1_1340">
        <rect width="24" height="24" fill="white"/>
        </clipPath>
        </defs>
    </symbol>
    <symbol id="email-icon" xmlns="http://www.w3.org/2000/svg" width="24" height="24" viewBox="0 0 24 24" fill="none">
        <g clip-path="url(#clip0_1_1343)">
        <path d="M22 4H2V20H22V4ZM20 8L12 13L4 8V6L12 11L20 6V8Z" fill="#242424"/>
        </g>
        <defs>
        <clipPath id="clip0_1_1343">
        <rect width="24" height="24" fill="white"/>
        </clipPath>
        </defs>
    </symbol>
    <symbol id="VK-icon" xmlns="http://www.w3.org/2000/svg"  viewBox="0 0 16 11" fill="none">
        <path d="M8.71455 10.5C3.24797 10.5 0.129919 6.74625 0 0.5H2.73829C2.82823 5.08458 4.84697 7.02653 6.44597 7.42693V0.5H9.02436V4.45395C10.6034 4.28378 12.2623 2.48198 12.822 0.5H15.4004C15.1895 1.52791 14.7691 2.50118 14.1655 3.35893C13.562 4.21668 12.7882 4.94045 11.8926 5.48498C12.8923 5.98254 13.7753 6.68678 14.4833 7.55125C15.1913 8.41571 15.7082 9.42073 16 10.5H13.1618C12.8999 9.56258 12.3676 8.72343 11.6316 8.08773C10.8956 7.45203 9.9886 7.04805 9.02436 6.92643V10.5H8.71455V10.5Z" fill="#242424"/>
    </symbol>
    <symbol id="whatsApp-icon" xmlns="http://www.w3.org/2000/svg" viewBox="0 0 15 15" fill="none">
        <path d="M12.8049 2.1875C11.3937 0.781249 9.51219 0 7.52613 0C3.39721 0 0.052264 3.33333 0.052264 7.44792C0.052264 8.75 0.418118 10.0521 1.0453 11.1458L0 15L3.97213 13.9583C5.06969 14.5313 6.27178 14.8438 7.52613 14.8438C11.6551 14.8438 15 11.5104 15 7.39583C14.9477 5.46875 14.216 3.59375 12.8049 2.1875ZM11.1324 10.1042C10.9756 10.5208 10.2439 10.9375 9.87805 10.9896C9.56446 11.0417 9.14634 11.0417 8.72822 10.9375C8.4669 10.8333 8.10105 10.7292 7.68293 10.5208C5.80139 9.73958 4.5993 7.86458 4.49477 7.70833C4.39025 7.60417 3.7108 6.71875 3.7108 5.78125C3.7108 4.84375 4.18118 4.42708 4.33798 4.21875C4.49477 4.01042 4.70383 4.01042 4.86063 4.01042C4.96516 4.01042 5.12195 4.01042 5.22648 4.01042C5.33101 4.01042 5.4878 3.95833 5.6446 4.32292C5.80139 4.6875 6.16725 5.625 6.21951 5.67708C6.27178 5.78125 6.27178 5.88542 6.21951 5.98958C6.16725 6.09375 6.11498 6.19792 6.01045 6.30208C5.90592 6.40625 5.80139 6.5625 5.74913 6.61458C5.6446 6.71875 5.54007 6.82292 5.6446 6.97917C5.74913 7.1875 6.11498 7.76042 6.6899 8.28125C7.4216 8.90625 7.99652 9.11458 8.20558 9.21875C8.41463 9.32292 8.51916 9.27083 8.62369 9.16667C8.72822 9.0625 9.09408 8.64583 9.19861 8.4375C9.30314 8.22917 9.45993 8.28125 9.61672 8.33333C9.77352 8.38542 10.7143 8.85417 10.8711 8.95833C11.0801 9.0625 11.1847 9.11458 11.2369 9.16667C11.2892 9.32292 11.2892 9.6875 11.1324 10.1042Z" fill="#242424"/>
    </symbol>
    <symbol id="button-arrow" xmlns="http://www.w3.org/2000/svg" width="24" height="24" viewBox="0 0 24 24" fill="none">
        <path d="M6 18L18 6"  stroke-width="2" stroke-linecap="round" stroke-linejoin="round"/>
        <path d="M8.25 6L18 6L18 15.75"  stroke-width="2" stroke-linecap="round" stroke-linejoin="round"/>
    </symbol>
    <symbol id="card-icon-1" xmlns="http://www.w3.org/2000/svg" viewBox="0 0 50 50" fill="none">
        <path fill-rule="evenodd" clip-rule="evenodd" d="M23.8711 16.9922C23.5782 16.9922 23.3829 16.8945 23.1875 16.6992C22.6016 16.1133 22.8946 15.4297 22.9922 15.1367L24.1641 12.5977L24.2618 12.5L35.2969 1.46484L35.4922 1.26953L38.0313 0.195312C38.2266 0.0976562 38.5196 0 38.7149 0C39.0079 0 39.3008 0.0976562 39.4961 0.292969C39.9844 0.78125 39.7891 1.46484 39.6914 1.85547L38.6172 4.39453C38.6172 4.49219 38.5196 4.58984 38.5196 4.58984L27.4844 15.625C27.3868 15.7227 27.3868 15.8203 27.2891 15.8203L24.6524 16.7969C24.4571 16.8945 24.1641 16.9922 23.8711 16.9922ZM25.1407 13.1836L24.0664 15.625V15.8203C24.0664 15.7227 24.1641 15.7227 24.2618 15.7227L26.7032 14.7461L37.543 3.90625L38.5196 1.36719C38.6172 1.36719 38.6172 1.26953 38.6172 1.17188L38.5196 1.26953L36.0782 2.34375L25.1407 13.1836Z" fill="#242424"/>
        <path fill-rule="evenodd" clip-rule="evenodd" d="M37.25 19.043H37.0547C36.8594 19.043 36.7617 18.9453 36.6641 18.75L31.7812 10.2539C31.6836 10.0586 31.6836 9.76562 31.8789 9.57031L34.3203 7.12891C34.418 7.03125 34.6133 6.93359 34.8086 7.03125C35.0039 7.03125 35.1992 7.12891 35.2969 7.32422L39.1055 16.5039C39.3984 17.1875 39.2031 17.9688 38.5195 18.3594L37.543 18.9453C37.4453 19.043 37.3477 19.043 37.25 19.043ZM33.0508 10.0586L37.4453 17.6758L37.9336 17.3828C38.1289 17.2852 38.0312 16.9922 38.0312 16.8945L34.5156 8.59375L33.0508 10.0586ZM29.9258 8.20312C29.8281 8.20312 29.7305 8.20312 29.6328 8.10547L21.1367 3.22266C20.9414 3.125 20.8438 2.73438 20.9414 2.44141L21.5273 1.36719C21.8203 0.976562 22.3086 0.683594 22.7969 0.683594C22.9922 0.683594 23.2852 0.78125 23.4805 0.878906L32.5625 4.6875C32.7578 4.78516 32.8555 4.88281 32.9531 5.07812C32.9531 5.27344 32.9531 5.46875 32.7578 5.66406L30.3164 8.00781C30.2188 8.10547 30.1211 8.20312 29.9258 8.20312ZM22.3086 2.53906L29.8281 6.93359L31.293 5.37109L22.9922 1.95312C22.9922 1.85547 22.8945 1.85547 22.7969 1.85547C22.6016 1.85547 22.6016 1.95312 22.6016 1.95312L22.3086 2.53906ZM24.5547 21.4844H24.457C24.2617 21.4844 24.0664 21.2891 23.9688 21.1914L22.2109 17.5781L18.6953 15.8203C18.5 15.7227 18.4023 15.625 18.3047 15.4297C18.3047 15.2344 18.4023 15.0391 18.5 14.9414L19.7695 13.6719C19.8672 13.5742 19.9648 13.4766 20.1602 13.4766L24.0664 13.2812C24.2617 13.2812 24.457 13.3789 24.5547 13.4766L24.6523 13.5742C24.75 13.7695 24.8477 13.9648 24.75 14.2578L24.0664 15.625V15.8203C24.0664 15.7227 24.1641 15.7227 24.2617 15.7227L25.7266 15.1367C25.9219 15.0391 26.2148 15.1367 26.3125 15.2344C26.4102 15.4297 26.5078 15.5273 26.5078 15.7227L26.3125 19.7266C26.3125 19.8242 26.3125 20.0195 26.1172 20.1172L24.9453 21.2891C24.8477 21.3867 24.6523 21.4844 24.5547 21.4844ZM19.9648 15.1367L22.8945 16.6016C23.0898 16.6992 23.1875 16.7969 23.1875 16.8945L24.6523 19.9219L25.1406 19.4336L25.3359 16.6016L24.6523 16.7969C24.457 16.8945 24.1641 16.9922 23.8711 16.9922C23.5781 16.9922 23.3828 16.8945 23.1875 16.6992C22.6016 16.1133 22.8945 15.4297 22.9922 15.1367L23.2852 14.5508L20.4531 14.6484L19.9648 15.1367ZM43.6953 45.7031H38.6172C38.3242 45.7031 38.0312 45.5078 38.0312 45.1172C38.0312 43.1641 36.4688 41.5039 34.418 41.5039H34.2227C32.2695 41.5039 30.6094 43.1641 30.6094 45.1172C30.6094 45.5078 30.3164 45.7031 30.0234 45.7031H20.3555C20.0625 45.7031 19.7695 45.5078 19.7695 45.1172C19.7695 43.1641 18.1094 41.5039 16.0586 41.5039C14.0078 41.5039 12.3477 43.1641 12.3477 45.1172C12.3477 45.5078 12.1523 45.7031 11.7617 45.7031H6.58594C6.29297 45.7031 6 45.5078 6 45.1172V38.1836C6 37.793 6.29297 37.5977 6.58594 37.5977H43.6953C43.9883 37.5977 44.2812 37.793 44.2812 38.1836V45.1172C44.2812 45.5078 43.9883 45.7031 43.6953 45.7031ZM39.2031 44.5312H43.1094V38.7695H7.17188V44.5312H11.2734C11.5664 42.1875 13.6172 40.332 16.0586 40.332C18.5977 40.332 20.6484 42.1875 20.9414 44.5312H29.4375C29.7305 42.1875 31.7812 40.332 34.2227 40.332H34.418C36.8594 40.332 38.9102 42.1875 39.2031 44.5312Z" fill="#242424"/>
        <path fill-rule="evenodd" clip-rule="evenodd" d="M43.6953 38.7695H29.7305C29.4375 38.7695 29.1445 38.4766 29.1445 38.1836V22.2656C29.1445 21.875 29.4375 21.6797 29.7305 21.6797H37.8359C38.4219 21.6797 39.0078 22.0703 43.5 29.8828C43.793 30.4688 44.0859 30.8594 44.1836 31.0547C44.1836 31.1523 44.2812 31.25 44.2812 31.3477V38.1836C44.2812 38.4766 43.9883 38.7695 43.6953 38.7695ZM30.3164 37.5977H43.1094V31.543C42.9141 31.25 42.7188 30.957 42.5234 30.4688C41.4492 28.7109 38.5195 23.5352 37.7383 22.8516H30.3164V37.5977Z" fill="#242424"/>
        <path fill-rule="evenodd" clip-rule="evenodd" d="M43.6953 31.9336H29.7305C29.4375 31.9336 29.1445 31.6406 29.1445 31.3477C29.1445 31.0547 29.4375 30.7617 29.7305 30.7617H43.6953C43.9883 30.7617 44.2812 31.0547 44.2812 31.3477C44.2812 31.6406 43.9883 31.9336 43.6953 31.9336ZM16.0586 50C13.4219 50 11.2734 47.8516 11.2734 45.1172C11.2734 42.4805 13.4219 40.332 16.0586 40.332C18.793 40.332 20.9414 42.4805 20.9414 45.1172C20.9414 47.8516 18.793 50 16.0586 50ZM16.0586 41.5039C14.1055 41.5039 12.4453 43.1641 12.4453 45.1172C12.4453 47.168 14.1055 48.8281 16.0586 48.8281C18.1094 48.8281 19.7695 47.168 19.7695 45.1172C19.7695 43.1641 18.1094 41.5039 16.0586 41.5039ZM34.418 50C31.6836 50 29.5352 47.8516 29.5352 45.1172C29.5352 42.4805 31.6836 40.332 34.418 40.332C37.0547 40.332 39.2031 42.4805 39.2031 45.1172C39.2031 47.8516 37.0547 50 34.418 50ZM34.418 41.5039C32.3672 41.5039 30.707 43.1641 30.707 45.1172C30.707 47.168 32.3672 48.8281 34.418 48.8281C36.4688 48.8281 38.0312 47.168 38.0312 45.1172C38.0312 43.1641 36.4688 41.5039 34.418 41.5039Z" fill="#242424"/>
        <path fill-rule="evenodd" clip-rule="evenodd" d="M16.0586 47.6562C14.6914 47.6562 13.6172 46.4844 13.6172 45.1172C13.6172 43.75 14.6914 42.6758 16.0586 42.6758C17.4258 42.6758 18.5977 43.75 18.5977 45.1172C18.5977 46.4844 17.4258 47.6562 16.0586 47.6562ZM16.0586 43.8477C15.375 43.8477 14.7891 44.4336 14.7891 45.1172C14.7891 45.8984 15.375 46.4844 16.0586 46.4844C16.8398 46.4844 17.4258 45.8984 17.4258 45.1172C17.4258 44.4336 16.8398 43.8477 16.0586 43.8477ZM34.418 47.6562C33.0508 47.6562 31.8789 46.4844 31.8789 45.1172C31.8789 43.75 33.0508 42.6758 34.418 42.6758C35.7852 42.6758 36.8594 43.75 36.8594 45.1172C36.8594 46.4844 35.7852 47.6562 34.418 47.6562ZM34.418 43.8477C33.6367 43.8477 33.0508 44.4336 33.0508 45.1172C33.0508 45.8984 33.6367 46.4844 34.418 46.4844C35.1016 46.4844 35.6875 45.8984 35.6875 45.1172C35.6875 44.4336 35.1016 43.8477 34.418 43.8477ZM14.3008 35.0586H11.7617C11.4688 35.0586 11.0781 34.7656 11.0781 34.375V32.0312C11.0781 31.7383 11.3711 31.4453 11.6641 31.4453H14.3984C14.6914 31.4453 14.9844 31.7383 14.9844 32.0312V34.375C14.9844 34.7656 14.6914 35.0586 14.3008 35.0586ZM12.25 33.8867H13.8125V32.6172H12.25V33.8867Z" fill="#242424"/>
        <path fill-rule="evenodd" clip-rule="evenodd" d="M16.9375 38.7695H9.125C8.73438 38.7695 8.44141 38.3789 8.44141 37.9883V32.1289C8.44141 31.7383 8.73438 31.4453 9.125 31.4453H16.9375C17.3281 31.4453 17.6211 31.7383 17.6211 32.1289V37.9883C17.6211 38.3789 17.3281 38.7695 16.9375 38.7695ZM9.61328 37.5977H16.4492V32.6172H9.61328V37.5977ZM24.457 35.0586H22.0156C21.625 35.0586 21.332 34.7656 21.332 34.375V32.0312C21.332 31.7383 21.5273 31.4453 21.918 31.4453H24.5547C24.8477 31.4453 25.1406 31.7383 25.1406 32.0312V34.375C25.1406 34.7656 24.8477 35.0586 24.457 35.0586ZM22.5039 33.8867H23.9688V32.6172H22.5039V33.8867Z" fill="#242424"/>
        <path fill-rule="evenodd" clip-rule="evenodd" d="M27.0938 38.7695H19.3789C18.9883 38.7695 18.5977 38.3789 18.5977 37.9883V32.1289C18.5977 31.7383 18.9883 31.4453 19.3789 31.4453H27.0938C27.4844 31.4453 27.875 31.7383 27.875 32.1289V37.9883C27.875 38.3789 27.4844 38.7695 27.0938 38.7695ZM19.7695 37.5977H26.7031V32.6172H19.7695V37.5977ZM14.3008 26.5625H11.7617C11.4688 26.5625 11.0781 26.2695 11.0781 25.8789V23.5352C11.0781 23.1445 11.3711 22.9492 11.6641 22.9492H14.3984C14.6914 22.9492 14.9844 23.1445 14.9844 23.5352V25.8789C14.9844 26.2695 14.6914 26.5625 14.3008 26.5625ZM12.25 25.3906H13.8125V24.1211H12.25V25.3906Z" fill="#242424"/>
        <path fill-rule="evenodd" clip-rule="evenodd" d="M16.9375 30.1758H9.125C8.73438 30.1758 8.44141 29.8828 8.44141 29.4922V23.6328C8.44141 23.2422 8.73438 22.9492 9.125 22.9492H16.9375C17.3281 22.9492 17.6211 23.2422 17.6211 23.6328V29.4922C17.6211 29.8828 17.3281 30.1758 16.9375 30.1758ZM9.61328 29.0039H16.4492V24.1211H9.61328V29.0039ZM24.457 26.5625H22.0156C21.625 26.5625 21.332 26.2695 21.332 25.8789V23.5352C21.332 23.1445 21.5273 22.9492 21.918 22.9492H24.5547C24.8477 22.9492 25.1406 23.1445 25.1406 23.5352V25.8789C25.1406 26.2695 24.8477 26.5625 24.457 26.5625ZM22.5039 25.3906H23.9688V24.1211H22.5039V25.3906Z" fill="#242424"/>
        <path fill-rule="evenodd" clip-rule="evenodd" d="M27.0938 30.1758H19.3789C18.9883 30.1758 18.5977 29.8828 18.5977 29.4922V23.6328C18.5977 23.2422 18.9883 22.9492 19.3789 22.9492H27.0938C27.4844 22.9492 27.875 23.2422 27.875 23.6328V29.4922C27.875 29.8828 27.4844 30.1758 27.0938 30.1758ZM19.7695 29.0039H26.7031V24.1211H19.7695V29.0039ZM41.9375 50H8.53906C8.24609 50 7.95312 49.707 7.95312 49.4141C7.95312 49.1211 8.24609 48.8281 8.53906 48.8281H41.9375C42.2305 48.8281 42.5234 49.1211 42.5234 49.4141C42.5234 49.707 42.2305 50 41.9375 50Z" fill="#242424"/>
    </symbol>
    <symbol id="card-icon-2" xmlns="http://www.w3.org/2000/svg" viewBox="0 0 50 50" fill="none">
        <path fill-rule="evenodd" clip-rule="evenodd" d="M39.1598 25.582C36.2301 25.582 33.4957 24.5078 31.5426 22.457C29.4918 20.4062 28.3199 17.6719 28.3199 14.7422C28.4176 8.78516 33.2028 4 39.1598 4C42.0895 4 44.8239 5.17188 46.8746 7.22266C48.9254 9.27344 49.9996 11.9102 49.9996 14.8398C49.9996 20.7969 45.1168 25.582 39.1598 25.582ZM39.1598 5.17188C33.8864 5.17188 29.4918 9.46875 29.4918 14.7422C29.4918 17.3789 30.4684 19.8203 32.3239 21.5781C34.1793 23.4336 36.5231 24.4102 39.1598 24.4102C44.4332 24.4102 48.8278 20.1133 48.8278 14.8398C48.8278 12.3008 47.8512 9.85938 45.9957 8.00391C44.2379 6.14844 41.7965 5.17188 39.1598 5.17188ZM25.1949 16.6953H21.6793C20.6051 16.6953 19.7262 15.8164 19.7262 14.7422C19.7262 13.668 20.6051 12.7891 21.6793 12.7891H25.1949C25.6832 12.7891 26.1715 12.9844 26.5621 13.375C26.9528 13.7656 27.1481 14.2539 27.1481 14.7422C27.1481 15.8164 26.2692 16.6953 25.1949 16.6953ZM21.6793 13.9609C21.2887 13.9609 20.8981 14.3516 20.8981 14.7422C20.8981 15.2305 21.2887 15.5234 21.6793 15.5234H25.1949C25.5856 15.5234 25.9762 15.2305 25.9762 14.7422C25.9762 14.5469 25.8785 14.3516 25.7809 14.2539C25.5856 14.0586 25.3903 13.9609 25.1949 13.9609H21.6793Z" fill="#242424"/>
        <path fill-rule="evenodd" clip-rule="evenodd" d="M28.9063 15.3281H26.5626C26.2696 15.3281 25.9766 15.1328 25.9766 14.7422C25.9766 14.4492 26.2696 14.1562 26.5626 14.1562H28.9063C29.2969 14.1562 29.4922 14.4492 29.4922 14.7422C29.4922 15.1328 29.2969 15.3281 28.9063 15.3281ZM39.1602 22.9453C34.668 22.8477 31.0547 19.2344 31.0547 14.7422C31.0547 10.3477 34.7657 6.73438 39.1602 6.73438C43.6524 6.73438 47.2657 10.3477 47.2657 14.8398C47.2657 19.2344 43.6524 22.9453 39.1602 22.9453ZM39.1602 7.90625C35.3516 7.90625 32.2266 10.9336 32.2266 14.7422C32.2266 18.6484 35.3516 21.6758 39.1602 21.7734C42.9688 21.7734 46.0938 18.6484 46.0938 14.8398C46.0938 11.0312 42.9688 7.90625 39.1602 7.90625ZM25.586 36.1289H23.4376C23.0469 36.1289 22.754 35.7383 22.754 35.4453V32.8086C22.754 32.5156 23.0469 32.2227 23.3399 32.2227H25.6837C25.9766 32.2227 26.2696 32.5156 26.2696 32.8086V35.4453C26.2696 35.7383 25.9766 36.1289 25.586 36.1289ZM23.9258 34.957H25.0977V33.3945H23.9258V34.957Z" fill="#242424"/>
        <path fill-rule="evenodd" clip-rule="evenodd" d="M30.0781 42.0859H18.9453C18.5547 42.0859 18.1641 41.793 18.1641 41.3047V33.0039C18.1641 32.6133 18.5547 32.2227 18.9453 32.2227H30.0781C30.4688 32.2227 30.7617 32.6133 30.7617 33.0039V41.3047C30.7617 41.793 30.4688 42.0859 30.0781 42.0859ZM19.3359 40.9141H29.5898V33.3945H19.3359V40.9141ZM9.375 16.5977C6.34766 16.5977 3.90625 14.1562 3.90625 11.1289C3.90625 8.10156 6.34766 5.66016 9.375 5.66016C12.4023 5.66016 14.8438 8.10156 14.8438 11.1289C14.8438 14.1562 12.4023 16.5977 9.375 16.5977ZM9.375 6.83203C7.03125 6.83203 5.07812 8.78516 5.07812 11.1289C5.07812 13.4727 7.03125 15.4258 9.375 15.4258C11.7188 15.4258 13.6719 13.4727 13.6719 11.1289C13.6719 8.78516 11.7188 6.83203 9.375 6.83203ZM16.3086 35.6406H13.2812C12.9883 35.6406 12.6953 35.3477 12.6953 35.0547C12.6953 34.7617 12.9883 34.4688 13.2812 34.4688H16.1133V22.5547C16.1133 20.2109 14.2578 18.2578 11.9141 18.2578H5.46875C3.125 18.2578 1.17188 20.2109 1.17188 22.5547V34.4688H4.00391C4.39453 34.4688 4.58984 34.7617 4.58984 35.0547C4.58984 35.3477 4.39453 35.6406 4.00391 35.6406H1.07422C0.488281 35.6406 0 35.1523 0 34.5664V22.5547C0 19.5273 2.44141 17.0859 5.46875 17.0859H11.9141C14.8438 17.0859 17.2852 19.5273 17.2852 22.5547V34.5664C17.2852 35.1523 16.8945 35.6406 16.3086 35.6406Z" fill="#242424"/>
        <path fill-rule="evenodd" clip-rule="evenodd" d="M12.5977 45.7969H4.68756C4.00397 45.7969 3.41803 45.2109 3.41803 44.5273V27.9258C3.41803 27.5352 3.711 27.3398 4.00397 27.3398C4.39459 27.3398 4.5899 27.5352 4.5899 27.9258V44.5273C4.5899 44.625 4.68756 44.625 4.68756 44.625H12.5977C12.6954 44.625 12.6954 44.625 12.6954 44.5273V27.9258C12.6954 27.5352 12.9883 27.3398 13.2813 27.3398C13.5743 27.3398 13.8672 27.5352 13.8672 27.9258V44.5273C13.8672 45.2109 13.2813 45.7969 12.5977 45.7969Z" fill="#242424"/>
        <path fill-rule="evenodd" clip-rule="evenodd" d="M8.69141 45.7969C8.30078 45.7969 8.10547 45.5039 8.10547 45.2109V35.0547C8.10547 34.7617 8.30078 34.4688 8.69141 34.4688C8.98438 34.4688 9.27734 34.7617 9.27734 35.0547V45.2109C9.27734 45.5039 8.98438 45.7969 8.69141 45.7969ZM38.9648 36.1289H36.8164C36.4258 36.1289 36.1328 35.7383 36.1328 35.4453V32.8086C36.1328 32.5156 36.3281 32.2227 36.7188 32.2227H39.0625C39.3555 32.2227 39.6484 32.5156 39.6484 32.8086V35.4453C39.6484 35.7383 39.2578 36.1289 38.9648 36.1289ZM37.3047 34.957H38.4766V33.3945H37.3047V34.957Z" fill="#242424"/>
        <path fill-rule="evenodd" clip-rule="evenodd" d="M43.3592 42.0859H32.324C31.9334 42.0859 31.5428 41.793 31.5428 41.3047V33.0039C31.5428 32.6133 31.9334 32.2227 32.324 32.2227H43.3592C43.8475 32.2227 44.1404 32.6133 44.1404 33.0039V41.3047C44.1404 41.793 43.8475 42.0859 43.3592 42.0859ZM32.7147 40.9141H42.9686V33.3945H32.7147V40.9141ZM29.199 28.2188C29.0037 28.2188 28.9061 28.1211 28.7108 28.0234L20.8006 20.0156C20.5076 19.8203 20.5076 19.4297 20.8006 19.2344C20.9959 18.9414 21.3865 18.9414 21.5818 19.2344L29.5897 27.2422C29.785 27.4375 29.785 27.8281 29.5897 28.0234C29.492 28.1211 29.2967 28.2188 29.199 28.2188Z" fill="#242424"/>
        <path fill-rule="evenodd" clip-rule="evenodd" d="M29.1992 28.2188H29.1015L26.8554 27.9258C26.5624 27.8281 26.3671 27.5352 26.3671 27.2422C26.4648 26.9492 26.7578 26.7539 27.0507 26.7539L28.5156 26.9492L28.3203 25.4844C28.2226 25.1914 28.5156 24.8984 28.8085 24.8008C29.1015 24.8008 29.3945 24.9961 29.4921 25.2891L29.7851 27.5352C29.7851 27.7305 29.6874 27.9258 29.5898 28.0234C29.4921 28.1211 29.2968 28.2188 29.1992 28.2188Z" fill="#242424"/>
    </symbol>
    <symbol id="card-icon-3" xmlns="http://www.w3.org/2000/svg" viewBox="0 0 50 50" fill="none">
        <path fill-rule="evenodd" clip-rule="evenodd" d="M43.457 46.5312H1.75781C0.78125 46.5312 0 45.75 0 44.7734V40.9648C0 39.8906 0.78125 39.1094 1.75781 39.1094H43.457C44.4336 39.1094 45.3125 39.8906 45.3125 40.9648V44.7734C45.3125 45.75 44.4336 46.5312 43.457 46.5312ZM1.75781 40.2812C1.46484 40.2812 1.17188 40.5742 1.17188 40.9648V44.7734C1.17188 45.0664 1.46484 45.3594 1.75781 45.3594H43.457C43.8477 45.3594 44.1406 45.0664 44.1406 44.7734V40.9648C44.1406 40.5742 43.8477 40.2812 43.457 40.2812H1.75781Z" fill="#242424"/>
        <path fill-rule="evenodd" clip-rule="evenodd" d="M15.1367 48.6797H3.22266C2.83203 48.6797 2.63672 48.3867 2.63672 48.0938V45.9453C2.63672 45.6523 2.83203 45.3594 3.22266 45.3594H15.1367C15.5273 45.3594 15.7227 45.6523 15.7227 45.9453V48.0938C15.7227 48.3867 15.5273 48.6797 15.1367 48.6797ZM3.80859 47.5078H14.5508V46.5312H3.80859V47.5078ZM42.0898 48.6797H30.0781C29.7852 48.6797 29.4922 48.3867 29.4922 48.0938V45.9453C29.4922 45.6523 29.7852 45.3594 30.0781 45.3594H42.0898C42.3828 45.3594 42.6758 45.6523 42.6758 45.9453V48.0938C42.6758 48.3867 42.3828 48.6797 42.0898 48.6797ZM30.6641 47.5078H41.5039V46.5312H30.6641V47.5078ZM42.9688 40.2812H2.34375C1.95312 40.2812 1.75781 40.0859 1.75781 39.6953V37.1562C1.75781 36.8633 1.95312 36.5703 2.34375 36.5703H42.9688C43.2617 36.5703 43.5547 36.8633 43.5547 37.1562V39.6953C43.5547 40.0859 43.2617 40.2812 42.9688 40.2812ZM2.92969 39.1094H42.3828V37.7422H2.92969V39.1094Z" fill="#242424"/>
        <path fill-rule="evenodd" clip-rule="evenodd" d="M44.6289 37.7422H0.683594C0.390625 37.7422 0.0976562 37.5469 0.0976562 37.1562V34.7148C0.0976562 34.4219 0.390625 34.1289 0.683594 34.1289H44.6289C44.9219 34.1289 45.2148 34.4219 45.2148 34.7148V37.1562C45.2148 37.5469 44.9219 37.7422 44.6289 37.7422ZM1.26953 36.5703H44.043V35.3008H1.26953V36.5703Z" fill="#242424"/>
        <path fill-rule="evenodd" clip-rule="evenodd" d="M41.0156 35.3008H37.5977C37.3047 35.3008 37.0117 35.0078 37.0117 34.7148V13.1328C37.0117 12.7422 37.3047 12.5469 37.5977 12.5469H41.0156C41.3086 12.5469 41.6016 12.7422 41.6016 13.1328V34.7148C41.6016 35.0078 41.3086 35.3008 41.0156 35.3008ZM38.1836 34.1289H40.4297V13.7188H38.1836V34.1289Z" fill="#242424"/>
        <path fill-rule="evenodd" clip-rule="evenodd" d="M49.4141 13.7188H29.1992C28.9062 13.7188 28.6133 13.4258 28.6133 13.1328V2.58594C28.6133 2.29297 28.9062 2 29.1992 2H49.4141C49.707 2 50 2.29297 50 2.58594V13.1328C50 13.4258 49.707 13.7188 49.4141 13.7188ZM29.7852 12.5469H48.8281V3.17188H29.7852V12.5469Z" fill="#242424"/>
        <path fill-rule="evenodd" clip-rule="evenodd" d="M37.793 11.1797H35.8398C35.1562 11.1797 34.668 10.6914 34.668 10.0078V5.61328C34.668 5.02734 35.1562 4.53906 35.8398 4.53906H37.793C38.3789 4.53906 38.8672 5.02734 38.8672 5.61328V10.0078C38.8672 10.6914 38.3789 11.1797 37.793 11.1797ZM35.8398 10.0078H37.6953V5.71094H35.8398V10.0078ZM42.7734 11.1797H40.8203C40.2344 11.1797 39.7461 10.6914 39.7461 10.0078V5.61328C39.7461 5.02734 40.2344 4.53906 40.8203 4.53906H42.7734C43.457 4.53906 43.9453 5.02734 43.9453 5.61328V10.0078C43.9453 10.6914 43.457 11.1797 42.7734 11.1797ZM40.918 10.0078H42.7734V5.71094H40.918V10.0078ZM32.9102 10.9844C32.6172 10.9844 32.3242 10.7891 32.3242 10.3984V5.22266C32.3242 4.92969 32.6172 4.63672 32.9102 4.63672C33.2031 4.63672 33.4961 4.92969 33.4961 5.22266V10.3984C33.4961 10.7891 33.2031 10.9844 32.9102 10.9844ZM45.7031 10.9844C45.4102 10.9844 45.1172 10.7891 45.1172 10.3984V5.22266C45.1172 4.92969 45.4102 4.63672 45.7031 4.63672C45.9961 4.63672 46.2891 4.92969 46.2891 5.22266V10.3984C46.2891 10.7891 45.9961 10.9844 45.7031 10.9844ZM27.4414 28.9531H25.1953C24.8047 28.9531 24.5117 28.6602 24.5117 28.2695V25.5352C24.5117 25.2422 24.8047 24.9492 25.0977 24.9492H27.5391C27.9297 24.9492 28.125 25.2422 28.125 25.5352V28.2695C28.125 28.6602 27.832 28.9531 27.4414 28.9531ZM25.6836 27.7812H26.9531V26.1211H25.6836V27.7812ZM13.0859 28.9531H10.8398C10.4492 28.9531 10.1562 28.6602 10.1562 28.2695V25.5352C10.1562 25.2422 10.4492 24.9492 10.7422 24.9492H13.1836C13.4766 24.9492 13.7695 25.2422 13.7695 25.5352V28.2695C13.7695 28.6602 13.4766 28.9531 13.0859 28.9531ZM11.3281 27.7812H12.5977V26.1211H11.3281V27.7812Z" fill="#242424"/>
        <path fill-rule="evenodd" clip-rule="evenodd" d="M32.1289 35.3008H20.5078C20.0195 35.3008 19.7266 35.0078 19.7266 34.5195V25.7305C19.7266 25.3398 20.0195 24.9492 20.5078 24.9492H32.1289C32.6172 24.9492 32.9102 25.3398 32.9102 25.7305V34.5195C32.9102 35.0078 32.6172 35.3008 32.1289 35.3008ZM20.8984 34.1289H31.7383V26.1211H20.8984V34.1289ZM17.7734 35.3008H6.15234C5.66406 35.3008 5.37109 35.0078 5.37109 34.5195V25.7305C5.37109 25.3398 5.66406 24.9492 6.15234 24.9492H17.7734C18.2617 24.9492 18.5547 25.3398 18.5547 25.7305V34.5195C18.5547 35.0078 18.2617 35.3008 17.7734 35.3008ZM6.54297 34.1289H17.3828V26.1211H6.54297V34.1289ZM20.3125 17.918H17.9688C17.6758 17.918 17.2852 17.625 17.2852 17.2344V14.5C17.2852 14.207 17.5781 13.9141 17.8711 13.9141H20.4102C20.7031 13.9141 20.9961 14.207 20.9961 14.5V17.2344C20.9961 17.625 20.6055 17.918 20.3125 17.918ZM18.457 16.7461H19.8242V15.0859H18.457V16.7461Z" fill="#242424"/>
        <path fill-rule="evenodd" clip-rule="evenodd" d="M25 24.2656H13.2812C12.8906 24.2656 12.5 23.875 12.5 23.4844V14.6953C12.5 14.3047 12.8906 13.9141 13.2812 13.9141H25C25.3906 13.9141 25.7812 14.3047 25.7812 14.6953V23.4844C25.7812 23.875 25.3906 24.2656 25 24.2656ZM13.6719 23.0938H24.6094V15.0859H13.6719V23.0938Z" fill="#242424"/>
    </symbol>
    <symbol id="card-icon-4" xmlns="http://www.w3.org/2000/svg" viewBox="0 0 50 50" fill="none">
        <path fill-rule="evenodd" clip-rule="evenodd" d="M25.293 25.4883C22.2656 25.4883 19.8242 22.9492 19.8242 19.9219C19.8242 16.8945 22.2656 14.4531 25.293 14.4531C28.3203 14.4531 30.8594 16.8945 30.8594 19.9219C30.8594 22.9492 28.3203 25.4883 25.293 25.4883ZM25.293 15.625C22.9492 15.625 20.9961 17.5781 20.9961 19.9219C20.9961 22.3633 22.9492 24.3164 25.293 24.3164C27.7344 24.3164 29.6875 22.3633 29.6875 19.9219C29.6875 17.5781 27.7344 15.625 25.293 15.625ZM36.5234 37.4023H14.0625C13.9648 37.4023 13.7695 37.3047 13.6719 37.207C13.5742 37.1094 13.4766 36.9141 13.4766 36.8164C13.4766 31.25 17.9688 26.7578 23.4375 26.7578H27.1484C32.6172 26.7578 37.1094 31.25 37.1094 36.7188V36.8164C37.1094 37.1094 36.9141 37.4023 36.5234 37.4023ZM14.6484 36.2305H35.9375C35.6445 31.6406 31.8359 27.9297 27.1484 27.9297H23.4375C18.8477 27.9297 14.9414 31.6406 14.6484 36.2305Z" fill="#242424"/>
        <path fill-rule="evenodd" clip-rule="evenodd" d="M36.914 15.4297C36.1328 15.4297 35.2539 15.0391 34.4726 14.3555C31.8359 12.0117 28.4179 10.6445 25 10.6445C21.582 10.6445 18.164 12.0117 15.4297 14.3555C14.7461 15.0391 13.8672 15.4297 13.0859 15.4297C11.8164 15.4297 10.7422 14.6484 10.2539 13.3789C9.86325 12.3047 9.96091 10.5469 11.5234 9.17969C15.332 5.85938 20.1172 4.00391 25 4.00391C29.8828 4.00391 34.6679 5.85938 38.4765 9.17969C40.039 10.5469 40.1367 12.3047 39.7461 13.3789C39.2578 14.6484 38.1836 15.4297 36.914 15.4297ZM25 9.47266C28.7109 9.47266 32.3242 10.9375 35.2539 13.4766C35.8398 13.9648 36.4257 14.2578 36.914 14.2578C37.6953 14.2578 38.2812 13.7695 38.5742 12.9883C38.9648 12.0117 38.6718 10.9375 37.6953 10.0586C34.082 6.93359 29.5898 5.17578 25 5.17578C20.4101 5.17578 15.9179 6.93359 12.3047 10.0586C11.3281 10.9375 11.0351 12.0117 11.3281 12.9883C11.6211 13.7695 12.3047 14.2578 13.0859 14.2578C13.5742 14.2578 14.1601 13.9648 14.7461 13.4766C17.5781 10.9375 21.289 9.47266 25 9.47266Z" fill="#242424"/>
        <path fill-rule="evenodd" clip-rule="evenodd" d="M43.2617 26.8554C42.9688 26.8554 42.6758 26.66 42.6758 26.3671C42.4805 21.9725 40.918 17.6757 38.1836 14.453C37.9883 14.16 37.9883 13.7694 38.2812 13.5741C38.5742 13.3788 38.8672 13.3788 39.0625 13.6718C41.9922 17.1874 43.6523 21.6796 43.8477 26.2694C43.8477 26.5624 43.5547 26.8554 43.2617 26.8554ZM6.73828 26.8554C6.34766 26.8554 6.15234 26.5624 6.15234 26.2694C6.34766 21.6796 8.00781 17.1874 10.8398 13.6718C11.0352 13.3788 11.4258 13.3788 11.7188 13.5741C11.9141 13.7694 12.0117 14.16 11.8164 14.453C9.08203 17.6757 7.51953 21.9725 7.32422 26.3671C7.32422 26.66 7.03125 26.8554 6.73828 26.8554Z" fill="#242424"/>
        <path fill-rule="evenodd" clip-rule="evenodd" d="M45.6055 41.8945H41.0156C40.332 41.8945 39.7461 41.4062 39.7461 40.625V26.9531C39.7461 26.2695 40.332 25.6836 41.0156 25.6836H45.6055C46.2891 25.6836 46.875 26.2695 46.875 26.9531V40.625C46.875 41.4062 46.2891 41.8945 45.6055 41.8945ZM41.0156 26.8555C40.918 26.8555 40.918 26.9531 40.918 26.9531V40.625C40.918 40.7227 40.918 40.7227 41.0156 40.7227H45.6055C45.6055 40.7227 45.7031 40.7227 45.7031 40.625V26.9531L45.6055 26.8555H41.0156Z" fill="#242424"/>
        <path fill-rule="evenodd" clip-rule="evenodd" d="M49.0234 40.0391H46.582C46.0938 40.0391 45.7031 39.5508 45.7031 39.0625V28.6133C45.7031 28.0273 46.0938 27.6367 46.582 27.6367H49.0234C49.6094 27.6367 50 28.0273 50 28.6133V39.0625C50 39.5508 49.6094 40.0391 49.0234 40.0391ZM46.875 38.8672H48.8281V28.8086H46.875V38.8672ZM8.98438 41.8945H4.39453C3.71094 41.8945 3.125 41.4062 3.125 40.625V26.9531C3.125 26.2695 3.71094 25.6836 4.39453 25.6836H8.98438C9.66797 25.6836 10.2539 26.2695 10.2539 26.9531V40.625C10.2539 41.4062 9.66797 41.8945 8.98438 41.8945ZM4.39453 26.8555L4.29688 26.9531V40.625C4.29688 40.7227 4.39453 40.7227 4.39453 40.7227H8.98438C9.08203 40.7227 9.08203 40.7227 9.08203 40.625V26.9531C9.08203 26.9531 9.08203 26.8555 8.98438 26.8555H4.39453Z" fill="#242424"/>
        <path fill-rule="evenodd" clip-rule="evenodd" d="M3.41797 40.0391H0.976562C0.390625 40.0391 0 39.5508 0 39.0625V28.6133C0 28.0273 0.390625 27.6367 0.976562 27.6367H3.41797C3.90625 27.6367 4.29688 28.0273 4.29688 28.6133V39.0625C4.29688 39.5508 3.90625 40.0391 3.41797 40.0391ZM1.17188 38.8672H3.125V28.8086H1.17188V38.8672ZM41.5039 44.5312H28.2227C27.832 44.5312 27.6367 44.3359 27.6367 43.9453C27.6367 43.6523 27.832 43.3594 28.2227 43.3594H41.5039C42.1875 43.3594 42.6758 42.8711 42.6758 42.1875C42.6758 41.8945 42.9688 41.6016 43.2617 41.6016C43.5547 41.6016 43.8477 41.8945 43.8477 42.1875C43.8477 43.5547 42.7734 44.5312 41.5039 44.5312Z" fill="#242424"/>
        <path fill-rule="evenodd" clip-rule="evenodd" d="M26.5625 45.9961C25.293 45.9961 24.3164 45.0195 24.3164 43.75C24.3164 42.5781 25.293 41.6016 26.5625 41.6016C27.7344 41.6016 28.8086 42.5781 28.8086 43.75C28.8086 45.0195 27.7344 45.9961 26.5625 45.9961ZM26.5625 42.7734C25.9766 42.7734 25.4883 43.1641 25.4883 43.75C25.4883 44.3359 25.9766 44.8242 26.5625 44.8242C27.1484 44.8242 27.6367 44.3359 27.6367 43.75C27.6367 43.1641 27.1484 42.7734 26.5625 42.7734Z" fill="#242424"/>
    </symbol>
    <symbol id="card-icon-5" xmlns="http://www.w3.org/2000/svg" viewBox="0 0 50 50" fill="none">
        <path fill-rule="evenodd" clip-rule="evenodd" d="M25 48.5352C19.3359 48.5352 13.9648 46.4844 9.66796 42.8711C5.46874 39.2578 2.63671 34.2773 1.7578 28.8086C1.66015 28.418 1.95312 28.125 2.24608 28.125C2.53905 28.0273 2.83202 28.3203 2.92968 28.6133C4.68749 39.4531 13.9648 47.3633 25 47.3633C36.0351 47.3633 45.3125 39.4531 47.0703 28.6133C47.168 28.3203 47.4609 28.0273 47.7539 28.125C48.0469 28.125 48.3398 28.418 48.2422 28.8086C47.3633 34.2773 44.5312 39.2578 40.332 42.8711C36.0351 46.4844 30.6641 48.5352 25 48.5352ZM46.3867 17.2852C46.1914 17.2852 45.8984 17.0898 45.8984 16.8945C42.4805 8.20312 34.2773 2.63672 25 2.63672C15.7226 2.63672 7.51952 8.20312 4.10155 16.8945C4.0039 17.1875 3.71093 17.2852 3.41796 17.1875C3.12499 17.0898 2.92968 16.7969 3.02733 16.4062C4.78515 12.1094 7.71483 8.39844 11.5234 5.66406C15.5273 2.92969 20.1172 1.46484 25 1.46484C29.8828 1.46484 34.4726 2.92969 38.4766 5.66406C42.2851 8.39844 45.2148 12.1094 46.9726 16.4062C47.0703 16.7969 46.875 17.0898 46.582 17.1875C46.582 17.2852 46.4844 17.2852 46.3867 17.2852Z" fill="#242424"/>
        <path fill-rule="evenodd" clip-rule="evenodd" d="M3.61328 20.7031C2.34375 20.7031 1.26953 19.7266 1.26953 18.457C1.26953 17.0898 2.34375 16.1133 3.61328 16.1133C4.88281 16.1133 5.95703 17.0898 5.95703 18.457C5.95703 19.7266 4.88281 20.7031 3.61328 20.7031ZM3.61328 17.2852C2.92969 17.2852 2.44141 17.7734 2.44141 18.457C2.44141 19.043 2.92969 19.5312 3.61328 19.5312C4.19922 19.5312 4.78516 19.043 4.78516 18.457C4.78516 17.7734 4.19922 17.2852 3.61328 17.2852ZM2.34375 29.2969C1.07422 29.2969 0 28.2227 0 26.9531C0 25.6836 1.07422 24.6094 2.34375 24.6094C3.61328 24.6094 4.6875 25.6836 4.6875 26.9531C4.6875 28.2227 3.61328 29.2969 2.34375 29.2969ZM2.34375 25.7812C1.66016 25.7812 1.17188 26.2695 1.17188 26.9531C1.17188 27.5391 1.66016 28.125 2.34375 28.125C3.02734 28.125 3.51562 27.5391 3.51562 26.9531C3.51562 26.2695 3.02734 25.7812 2.34375 25.7812ZM46.3867 20.7031C45.1172 20.7031 44.043 19.7266 44.043 18.457C44.043 17.0898 45.1172 16.1133 46.3867 16.1133C47.6562 16.1133 48.7305 17.0898 48.7305 18.457C48.7305 19.7266 47.6562 20.7031 46.3867 20.7031ZM46.3867 17.2852C45.8008 17.2852 45.2148 17.7734 45.2148 18.457C45.2148 19.043 45.8008 19.5312 46.3867 19.5312C47.0703 19.5312 47.5586 19.043 47.5586 18.457C47.5586 17.7734 47.0703 17.2852 46.3867 17.2852ZM47.6562 29.2969C46.3867 29.2969 45.3125 28.2227 45.3125 26.9531C45.3125 25.6836 46.3867 24.6094 47.6562 24.6094C48.9258 24.6094 50 25.6836 50 26.9531C50 28.2227 48.9258 29.2969 47.6562 29.2969ZM47.6562 25.7812C46.9727 25.7812 46.4844 26.2695 46.4844 26.9531C46.4844 27.5391 46.9727 28.125 47.6562 28.125C48.3398 28.125 48.8281 27.5391 48.8281 26.9531C48.8281 26.2695 48.3398 25.7812 47.6562 25.7812ZM29.9805 18.8477H10.3516C10.0586 18.8477 9.76562 18.6523 9.76562 18.2617C9.76562 17.9688 10.0586 17.6758 10.3516 17.6758H29.9805C30.2734 17.6758 30.5664 17.9688 30.5664 18.2617C30.5664 18.6523 30.2734 18.8477 29.9805 18.8477ZM39.4531 32.3242H10.3516C10.0586 32.3242 9.76562 32.0312 9.76562 31.7383C9.76562 31.3477 10.0586 31.1523 10.3516 31.1523H39.4531C39.8438 31.1523 40.0391 31.3477 40.0391 31.7383C40.0391 32.0312 39.8438 32.3242 39.4531 32.3242Z" fill="#242424"/>
        <path fill-rule="evenodd" clip-rule="evenodd" d="M24.9023 41.6992C22.3633 41.6992 20.1172 39.8438 18.3594 36.6211C16.6992 33.4961 15.8203 29.3945 15.8203 25C15.8203 20.6055 16.6992 16.5039 18.3594 13.3789C20.1172 10.1562 22.3633 8.30078 24.9023 8.30078C27.1484 8.30078 29.2969 9.86328 30.957 12.6953C31.0547 12.8906 31.0547 13.0859 30.957 13.2812C30.3711 14.1602 30.0781 15.1367 30.0781 16.1133C30.0781 17.7734 32.9102 24.3164 33.7891 26.4648C33.7891 26.5625 33.8867 26.6602 33.8867 26.7578C33.5938 30.7617 32.6172 34.4727 31.0547 37.207C29.3945 40.0391 27.1484 41.6992 24.9023 41.6992ZM24.9023 9.47266C22.8516 9.47266 20.8984 11.0352 19.4336 13.8672C17.8711 16.8945 16.9922 20.8008 16.9922 25C16.9922 29.1992 17.8711 33.1055 19.4336 36.1328C20.8984 38.9648 22.8516 40.5273 24.9023 40.5273C26.7578 40.5273 28.6133 39.1602 29.9805 36.6211C31.543 34.082 32.4219 30.5664 32.7148 26.7578C30.0781 20.7031 28.9062 17.4805 28.9062 16.1133C28.9062 15.0391 29.1992 13.8672 29.7852 12.9883C28.3203 10.7422 26.6602 9.47266 24.9023 9.47266Z" fill="#242424"/>
        <path fill-rule="evenodd" clip-rule="evenodd" d="M24.9023 41.6992C24.5117 41.6992 24.3164 41.4062 24.3164 41.1133V8.88672C24.3164 8.59375 24.5117 8.30078 24.9023 8.30078C25.1953 8.30078 25.4883 8.59375 25.4883 8.88672V41.1133C25.4883 41.4062 25.1953 41.6992 24.9023 41.6992ZM35.2539 31.8359C34.9609 31.8359 34.7656 31.7383 34.668 31.4453C34.4727 30.8594 34.082 29.9805 33.5938 28.9062C31.25 23.4375 28.9062 17.9688 28.9062 16.1133C28.9062 12.6953 31.7383 9.86328 35.2539 9.86328C38.6719 9.86328 41.5039 12.6953 41.5039 16.1133C41.5039 17.9688 39.1602 23.4375 36.8164 28.9062C36.4258 29.9805 36.0352 30.8594 35.7422 31.4453C35.6445 31.7383 35.4492 31.8359 35.2539 31.8359ZM35.2539 11.0352C32.4219 11.0352 30.0781 13.2812 30.0781 16.1133C30.0781 17.8711 33.0078 24.707 34.668 28.418C34.8633 28.9062 35.0586 29.3945 35.2539 29.7852C35.3516 29.3945 35.5469 28.9062 35.7422 28.418C37.4023 24.707 40.332 17.8711 40.332 16.1133C40.332 13.2812 38.0859 11.0352 35.2539 11.0352Z" fill="#242424"/>
        <path fill-rule="evenodd" clip-rule="evenodd" d="M35.2539 20.1172C33.3984 20.1172 31.8359 18.6523 31.8359 16.7969C31.8359 14.9414 33.3984 13.4766 35.2539 13.4766C37.1094 13.4766 38.5742 14.9414 38.5742 16.7969C38.5742 18.6523 37.1094 20.1172 35.2539 20.1172ZM35.2539 14.6484C33.9844 14.6484 33.0078 15.625 33.0078 16.7969C33.0078 17.9688 33.9844 18.9453 35.2539 18.9453C36.4258 18.9453 37.4023 17.9688 37.4023 16.7969C37.4023 15.625 36.4258 14.6484 35.2539 14.6484Z" fill="#242424"/>
        <path fill-rule="evenodd" clip-rule="evenodd" d="M25 41.6016C15.8203 41.6016 8.39844 34.1797 8.39844 25C8.39844 15.8203 15.8203 8.39844 25 8.39844C27.832 8.39844 30.5664 9.08203 33.1055 10.4492C33.3008 10.5469 33.3984 10.7422 33.3984 10.9375C33.3984 11.2305 33.2031 11.4258 33.0078 11.5234C31.25 12.3047 30.0781 14.1602 30.0781 16.1133C30.0781 17.8711 33.0078 24.707 34.668 28.418C34.8633 28.9062 35.0586 29.3945 35.2539 29.7852C35.3516 29.3945 35.5469 28.9062 35.7422 28.418C36.9141 25.7812 38.5742 22.0703 39.5508 19.2383C39.6484 19.043 39.8438 18.8477 40.0391 18.8477C40.332 18.8477 40.5273 19.043 40.625 19.2383C41.3086 21.0938 41.6016 23.0469 41.6016 25C41.6016 34.1797 34.1797 41.6016 25 41.6016ZM25 9.57031C20.8984 9.57031 16.9922 11.1328 14.0625 14.0625C11.1328 16.9922 9.57031 20.8984 9.57031 25C9.57031 33.4961 16.5039 40.4297 25 40.4297C33.4961 40.4297 40.4297 33.4961 40.4297 25C40.4297 23.7305 40.332 22.4609 40.0391 21.2891C39.0625 23.8281 37.793 26.6602 36.8164 28.9062C36.4258 29.9805 36.0352 30.8594 35.7422 31.4453C35.6445 31.7383 35.4492 31.8359 35.2539 31.8359C34.9609 31.8359 34.7656 31.7383 34.668 31.4453C34.4727 30.8594 33.9844 29.9805 33.5938 28.9062C31.25 23.4375 28.9062 17.9688 28.9062 16.1133C28.9062 14.0625 29.8828 12.1094 31.543 10.9375C29.4922 10.0586 27.2461 9.57031 25 9.57031Z" fill="#242424"/>
    </symbol>
    <symbol id="card-icon-6" xmlns="http://www.w3.org/2000/svg" viewBox="0 0 50 50" fill="none">
        <path fill-rule="evenodd" clip-rule="evenodd" d="M32.5195 34.8633C30.1758 34.8633 27.9297 34.2773 25.8789 33.2031C25.7812 33.1055 25.6836 32.9102 25.5859 32.8125C25.5859 32.6172 25.5859 32.4219 25.6836 32.3242C27.4414 30.0781 28.418 27.3438 28.418 24.5117C28.5156 19.8242 26.0742 15.4297 22.0703 13.0859C21.875 12.9883 21.7773 12.8906 21.7773 12.6953C21.7773 12.5 21.7773 12.3047 21.875 12.207C24.5117 9.08203 28.418 7.22656 32.5195 7.22656C40.1367 7.22656 46.2891 13.4766 46.2891 21.0938C46.2891 28.6133 40.1367 34.8633 32.5195 34.8633ZM27.0508 32.4219C28.7109 33.2031 30.5664 33.6914 32.5195 33.6914C39.4531 33.6914 45.1172 28.0273 45.1172 21.0938C45.1172 14.0625 39.4531 8.39844 32.5195 8.39844C29.0039 8.39844 25.5859 9.86328 23.2422 12.5C27.2461 15.1367 29.6875 19.6289 29.5898 24.5117C29.5898 27.3438 28.7109 30.0781 27.0508 32.4219Z" fill="#242424"/>
        <path fill-rule="evenodd" clip-rule="evenodd" d="M32.5195 11.8164C32.1289 11.8164 31.9336 11.5234 31.9336 11.2305V9.66797C31.9336 9.375 32.1289 9.08203 32.5195 9.08203C32.8125 9.08203 33.1055 9.375 33.1055 9.66797V11.2305C33.1055 11.5234 32.8125 11.8164 32.5195 11.8164ZM37.4023 13.0859C37.3047 13.0859 37.207 13.0859 37.1094 12.9883C36.8164 12.8906 36.7188 12.5 36.9141 12.207L37.6953 10.9375C37.793 10.6445 38.1836 10.5469 38.4766 10.7422C38.7695 10.8398 38.8672 11.2305 38.6719 11.5234L37.8906 12.793C37.793 12.9883 37.5977 13.0859 37.4023 13.0859ZM41.0156 16.6992C40.8203 16.6992 40.625 16.6016 40.5273 16.4062C40.332 16.1133 40.4297 15.8203 40.7227 15.625L41.9922 14.8438C42.2852 14.7461 42.6758 14.8438 42.8711 15.0391C42.9688 15.332 42.8711 15.7227 42.5781 15.918L41.3086 16.6016C41.2109 16.6992 41.1133 16.6992 41.0156 16.6992ZM43.8477 21.6797H42.3828C41.9922 21.6797 41.7969 21.3867 41.7969 21.0938C41.7969 20.7031 41.9922 20.5078 42.3828 20.5078H43.8477C44.1406 20.5078 44.4336 20.7031 44.4336 21.0938C44.4336 21.3867 44.1406 21.6797 43.8477 21.6797ZM42.2852 27.3438C42.1875 27.3438 42.0898 27.2461 41.9922 27.2461L40.7227 26.4648C40.4297 26.2695 40.332 25.9766 40.5273 25.6836C40.625 25.3906 41.0156 25.293 41.3086 25.4883L42.5781 26.2695C42.8711 26.3672 42.9688 26.7578 42.8711 27.0508C42.7734 27.2461 42.5781 27.3438 42.2852 27.3438ZM38.1836 31.4453C37.9883 31.4453 37.793 31.3477 37.6953 31.1523L36.9141 29.8828C36.7188 29.5898 36.8164 29.1992 37.1094 29.1016C37.4023 28.9062 37.793 29.0039 37.8906 29.2969L38.6719 30.5664C38.8672 30.8594 38.7695 31.25 38.4766 31.3477C38.3789 31.4453 38.2812 31.4453 38.1836 31.4453ZM32.5195 33.0078C32.1289 33.0078 31.9336 32.7148 31.9336 32.4219V30.8594C31.9336 30.5664 32.1289 30.2734 32.5195 30.2734C32.8125 30.2734 33.1055 30.5664 33.1055 30.8594V32.4219C33.1055 32.7148 32.8125 33.0078 32.5195 33.0078ZM27.5391 13.0859C27.3438 13.0859 27.1484 12.9883 27.0508 12.793L26.2695 11.5234C26.1719 11.2305 26.2695 10.8398 26.5625 10.7422C26.7578 10.5469 27.1484 10.6445 27.3438 10.9375L28.0273 12.207C28.2227 12.5 28.125 12.8906 27.832 12.9883C27.7344 13.0859 27.6367 13.0859 27.5391 13.0859ZM31.25 23.7305C31.1523 23.7305 31.0547 23.7305 30.957 23.6328C30.7617 23.4375 30.6641 23.1445 30.7617 22.8516L31.8359 20.9961L29.2969 15.332C29.1992 15.0391 29.2969 14.7461 29.5898 14.5508C29.8828 14.4531 30.2734 14.5508 30.3711 14.8438L33.0078 20.8008C33.1055 20.9961 33.1055 21.1914 33.0078 21.3867L31.8359 23.4375C31.6406 23.6328 31.4453 23.7305 31.25 23.7305Z" fill="#242424"/>
        <path fill-rule="evenodd" clip-rule="evenodd" d="M32.5195 37.4023C29.4922 37.4023 26.6601 36.6211 24.1211 35.0586C23.9258 34.9609 23.8281 34.7656 23.8281 34.5703C23.8281 34.4727 23.8281 34.2773 24.0234 34.082C26.7578 31.6406 28.418 28.2227 28.418 24.5117C28.5156 18.9453 25 13.8672 19.8242 12.0117C19.6289 12.0117 19.4336 11.8164 19.4336 11.6211C19.3359 11.4258 19.4336 11.2305 19.5312 11.1328C22.6562 7.03125 27.3437 4.6875 32.5195 4.6875C41.5039 4.6875 48.8281 12.0117 48.8281 21.0938C48.8281 30.0781 41.5039 37.4023 32.5195 37.4023ZM25.3906 34.4727C27.539 35.6445 29.9805 36.2305 32.5195 36.2305C40.8203 36.2305 47.6562 29.3945 47.6562 21.0938C47.6562 12.6953 40.8203 5.85938 32.5195 5.85938C28.0273 5.85938 23.8281 7.8125 20.8984 11.2305C26.2695 13.4766 29.6875 18.75 29.5898 24.5117C29.5898 28.2227 28.0273 31.8359 25.3906 34.4727ZM35.1562 3.41797H29.7851C29.4922 3.41797 29.1992 3.125 29.1992 2.83203V0.585938C29.1992 0.292969 29.4922 0 29.7851 0H35.1562C35.4492 0 35.7422 0.292969 35.7422 0.585938V2.83203C35.7422 3.125 35.4492 3.41797 35.1562 3.41797ZM30.3711 2.24609H34.5703V1.17188H30.3711V2.24609Z" fill="#242424"/>
        <path fill-rule="evenodd" clip-rule="evenodd" d="M33.5938 5.66406H31.4453C31.0547 5.66406 30.8594 5.46875 30.8594 5.07812V2.83203C30.8594 2.53906 31.0547 2.24609 31.4453 2.24609H33.5938C33.8867 2.24609 34.1797 2.53906 34.1797 2.83203V5.07812C34.1797 5.46875 33.8867 5.66406 33.5938 5.66406ZM32.0312 4.49219H33.0078V3.41797H32.0312V4.49219ZM40.332 8.00781C40.2344 8.00781 40.1367 8.00781 40.0391 7.91016C39.7461 7.71484 39.6484 7.42188 39.8438 7.12891L40.7227 5.56641C40.918 5.27344 41.2109 5.17578 41.5039 5.37109C41.7969 5.56641 41.8945 5.85938 41.7969 6.15234L40.918 7.71484C40.7227 7.91016 40.5273 8.00781 40.332 8.00781Z" fill="#242424"/>
        <path fill-rule="evenodd" clip-rule="evenodd" d="M41.8945 6.83616C41.7969 6.83616 41.6992 6.83616 41.6016 6.73851L40.332 6.05491C40.0391 5.8596 39.9414 5.46898 40.0391 5.17601C40.2344 4.98069 40.625 4.88304 40.918 4.98069L42.1875 5.76194C42.4805 5.95726 42.5781 6.25023 42.3828 6.54319C42.2851 6.73851 42.0898 6.83616 41.8945 6.83616ZM24.6094 8.00804C24.4141 8.00804 24.2187 7.91038 24.1211 7.71507L23.2422 6.15257C23.0469 5.8596 23.1445 5.56663 23.4375 5.37132C23.7305 5.17601 24.1211 5.27366 24.2187 5.56663L25.0976 7.12913C25.293 7.4221 25.1953 7.71507 24.9023 7.91038C24.8047 8.00804 24.707 8.00804 24.6094 8.00804Z" fill="#242424"/>
        <path fill-rule="evenodd" clip-rule="evenodd" d="M23.0469 6.83616C22.8516 6.83616 22.6562 6.73851 22.5586 6.54319C22.4609 6.25023 22.4609 5.95726 22.7539 5.76194L24.1211 4.98069C24.4141 4.88304 24.707 4.98069 24.9023 5.17601C25.0977 5.46898 25 5.8596 24.707 6.05491L23.3398 6.73851C23.2422 6.83616 23.1445 6.83616 23.0469 6.83616ZM15.4297 38.5744H15.2344C11.4258 38.4768 7.8125 36.9143 5.17578 34.2776C2.53906 31.5432 1.17188 27.9299 1.17188 24.1213C1.26953 20.4104 2.73438 16.7971 5.37109 14.1604C8.10547 11.5237 11.7188 10.0588 15.625 10.0588C19.4336 10.1565 22.9492 11.719 25.5859 14.4534C28.2227 17.0901 29.6875 20.7034 29.5898 24.5119C29.5898 28.3205 28.0273 31.8362 25.3906 34.4729C22.6562 37.1096 19.1406 38.5744 15.4297 38.5744ZM15.4297 11.2307C8.30078 11.2307 2.44141 17.0901 2.34375 24.1213C2.34375 27.6369 3.61328 30.9573 6.05469 33.3987C8.49609 35.9377 11.7188 37.3049 15.2344 37.4026H15.4297C22.4609 37.4026 28.3203 31.6409 28.418 24.5119C28.5156 20.9963 27.1484 17.676 24.707 15.2346C22.3633 12.6955 19.043 11.3284 15.625 11.2307H15.4297ZM15.0391 50.0002C13.6719 50.0002 12.6953 48.926 12.6953 47.5588V42.8713C12.793 41.6018 13.8672 40.5276 15.1367 40.5276C16.5039 40.5276 17.5781 41.6018 17.5781 42.969L17.4805 47.6565C17.4805 48.926 16.4062 50.0002 15.0391 50.0002ZM15.1367 41.6994C14.4531 41.6994 13.9648 42.2854 13.8672 42.8713V47.5588C13.8672 48.2424 14.3555 48.8284 15.0391 48.8284C15.7227 48.8284 16.3086 48.2424 16.3086 47.6565L16.4062 42.969C16.4062 42.2854 15.8203 41.6994 15.1367 41.6994Z" fill="#242424"/>
        <path fill-rule="evenodd" clip-rule="evenodd" d="M15.1367 41.699C14.8438 41.699 14.5508 41.406 14.5508 41.1131L14.6484 37.9881C14.6484 37.5974 14.8438 37.4021 15.2344 37.4021C15.5274 37.4021 15.8203 37.5974 15.8203 37.9881L15.7227 41.1131C15.7227 41.406 15.5274 41.699 15.1367 41.699ZM15.4297 35.8396H15.2344C8.88673 35.742 3.80861 30.4685 3.90626 24.1209C4.00392 21.0935 5.17579 18.2615 7.32423 16.1131C9.57032 13.9646 12.5 12.7928 15.5274 12.8904C18.6524 12.8904 21.4844 14.1599 23.6328 16.3084C25.7813 18.5545 26.9531 21.3865 26.8555 24.5115C26.8555 27.5389 25.586 30.3709 23.4375 32.5193C21.2891 34.6678 18.457 35.8396 15.4297 35.8396ZM15.4297 14.0623C9.76564 14.0623 5.17579 18.5545 5.07814 24.2185C4.98048 29.8826 9.57032 34.5701 15.2344 34.6678H15.4297C20.9961 34.6678 25.586 30.0779 25.6836 24.5115C25.7813 21.6795 24.707 19.1404 22.7539 17.0896C20.8985 15.1365 18.2617 14.0623 15.5274 14.0623H15.4297Z" fill="#242424"/>
    </symbol>
    <symbol id="doted-line" xmlns="http://www.w3.org/2000/svg" width="1402" height="2" viewBox="0 0 1402 2" fill="none">
        <path d="M1 1H1401" stroke="#242424" stroke-width="2" stroke-linecap="round" stroke-dasharray="1 10"/>
    </symbol>
    <symbol id="card-icon-7" xmlns="http://www.w3.org/2000/svg" width="50" height="50" viewBox="0 0 50 50" fill="none">
        <path fill-rule="evenodd" clip-rule="evenodd" d="M46.3867 47.0703H3.61328C3.32031 47.0703 3.02734 46.7773 3.02734 46.4844V19.043C3.02734 18.75 3.32031 18.457 3.61328 18.457C3.90625 18.457 4.19922 18.75 4.19922 19.043V45.8984H45.8008V19.043C45.8008 18.75 46.0938 18.457 46.3867 18.457C46.6797 18.457 46.9727 18.75 46.9727 19.043V46.4844C46.9727 46.7773 46.6797 47.0703 46.3867 47.0703Z" fill="#242424"/>
        <path fill-rule="evenodd" clip-rule="evenodd" d="M49.4141 19.6289H0.585938C0.292969 19.6289 0.0976562 19.4336 0 19.2383C0 18.9453 0.0976562 18.75 0.292969 18.5547L24.707 3.02734C24.9023 2.92969 25.0977 2.92969 25.293 3.02734L49.707 18.5547C49.9023 18.6523 50 18.8477 50 19.043C50 19.4336 49.707 19.6289 49.4141 19.6289ZM2.63672 18.457H47.3633L25 4.19922L2.63672 18.457Z" fill="#242424"/>
        <path fill-rule="evenodd" clip-rule="evenodd" d="M41.0156 17.1875C40.918 17.1875 40.8203 17.1875 40.7227 17.0898L29.5898 10.0586C29.2969 9.86328 29.1992 9.47266 29.3945 9.27734C29.5898 8.98438 29.9805 8.88672 30.1758 9.08203L41.3086 16.1133C41.6016 16.3086 41.6992 16.6992 41.5039 16.8945C41.4062 17.0898 41.2109 17.1875 41.0156 17.1875ZM8.98438 17.1875C8.78906 17.1875 8.59375 17.0898 8.49609 16.8945C8.30078 16.6992 8.39844 16.3086 8.69141 16.1133L19.8242 9.08203C20.0195 8.88672 20.4102 8.98438 20.6055 9.27734C20.8008 9.47266 20.7031 9.86328 20.4102 10.0586L9.27734 17.0898C9.17969 17.1875 9.08203 17.1875 8.98438 17.1875ZM25 14.1602C23.4375 14.1602 22.0703 12.8906 22.0703 11.3281C22.0703 9.66797 23.4375 8.39844 25 8.39844C26.5625 8.39844 27.9297 9.66797 27.9297 11.3281C27.9297 12.8906 26.5625 14.1602 25 14.1602ZM25 9.57031C24.0234 9.57031 23.2422 10.3516 23.2422 11.3281C23.2422 12.207 24.0234 12.9883 25 12.9883C25.9766 12.9883 26.7578 12.207 26.7578 11.3281C26.7578 10.3516 25.9766 9.57031 25 9.57031ZM48.9258 47.0703H1.07422C0.683594 47.0703 0.488281 46.7773 0.488281 46.4844C0.488281 46.0938 0.683594 45.8984 1.07422 45.8984H48.9258C49.3164 45.8984 49.5117 46.0938 49.5117 46.4844C49.5117 46.7773 49.3164 47.0703 48.9258 47.0703ZM12.5 41.8945H10.1562C9.76562 41.8945 9.47266 41.6016 9.47266 41.3086V39.1602C9.47266 38.7695 9.76562 38.5742 10.0586 38.5742H12.5977C12.8906 38.5742 13.1836 38.7695 13.1836 39.1602V41.3086C13.1836 41.6016 12.8906 41.8945 12.5 41.8945ZM10.6445 40.7227H12.0117V39.7461H10.6445V40.7227Z" fill="#242424"/>
        <path fill-rule="evenodd" clip-rule="evenodd" d="M16.0156 47.0703H6.64062C6.25 47.0703 5.95703 46.6797 5.95703 46.2891V39.2578C5.95703 38.8672 6.25 38.5742 6.64062 38.5742H16.0156C16.4062 38.5742 16.7969 38.8672 16.7969 39.2578V46.2891C16.7969 46.6797 16.4062 47.0703 16.0156 47.0703ZM7.12891 45.8984H15.625V39.7461H7.12891V45.8984ZM12.5 34.5703H10.1562C9.76562 34.5703 9.47266 34.2773 9.47266 33.8867V31.7383C9.47266 31.4453 9.76562 31.1523 10.0586 31.1523H12.5977C12.8906 31.1523 13.1836 31.4453 13.1836 31.7383V33.8867C13.1836 34.2773 12.8906 34.5703 12.5 34.5703ZM10.6445 33.3984H12.0117V32.3242H10.6445V33.3984Z" fill="#242424"/>
        <path fill-rule="evenodd" clip-rule="evenodd" d="M16.0156 39.7461H6.64062C6.25 39.7461 5.95703 39.3555 5.95703 38.9648V31.9336C5.95703 31.543 6.25 31.1523 6.64062 31.1523H16.0156C16.4062 31.1523 16.7969 31.543 16.7969 31.9336V38.9648C16.7969 39.3555 16.4062 39.7461 16.0156 39.7461ZM7.12891 38.5742H15.625V32.3242H7.12891V38.5742ZM12.5 27.2461H10.1562C9.76562 27.2461 9.47266 26.9531 9.47266 26.5625V24.4141C9.47266 24.1211 9.76562 23.8281 10.0586 23.8281H12.5977C12.8906 23.8281 13.1836 24.1211 13.1836 24.4141V26.5625C13.1836 26.9531 12.8906 27.2461 12.5 27.2461ZM10.6445 26.0742H12.0117V25H10.6445V26.0742Z" fill="#242424"/>
        <path fill-rule="evenodd" clip-rule="evenodd" d="M16.0156 32.3242H6.64062C6.25 32.3242 5.95703 32.0312 5.95703 31.6406V24.6094C5.95703 24.2188 6.25 23.8281 6.64062 23.8281H16.0156C16.4062 23.8281 16.7969 24.2188 16.7969 24.6094V31.6406C16.7969 32.0312 16.4062 32.3242 16.0156 32.3242ZM7.12891 31.1523H15.625V25H7.12891V31.1523ZM26.1719 41.8945H23.8281C23.4375 41.8945 23.1445 41.6016 23.1445 41.3086V39.1602C23.1445 38.7695 23.4375 38.5742 23.7305 38.5742H26.2695C26.5625 38.5742 26.8555 38.7695 26.8555 39.1602V41.3086C26.8555 41.6016 26.5625 41.8945 26.1719 41.8945ZM24.3164 40.7227H25.6836V39.7461H24.3164V40.7227Z" fill="#242424"/>
        <path fill-rule="evenodd" clip-rule="evenodd" d="M29.6875 47.0703H20.3125C19.9219 47.0703 19.5312 46.6797 19.5312 46.2891V39.2578C19.5312 38.8672 19.9219 38.5742 20.3125 38.5742H29.6875C30.0781 38.5742 30.3711 38.8672 30.3711 39.2578V46.2891C30.3711 46.6797 30.0781 47.0703 29.6875 47.0703ZM20.7031 45.8984H29.1992V39.7461H20.7031V45.8984ZM26.1719 34.5703H23.8281C23.4375 34.5703 23.1445 34.2773 23.1445 33.8867V31.7383C23.1445 31.4453 23.4375 31.1523 23.7305 31.1523H26.2695C26.5625 31.1523 26.8555 31.4453 26.8555 31.7383V33.8867C26.8555 34.2773 26.5625 34.5703 26.1719 34.5703ZM24.3164 33.3984H25.6836V32.3242H24.3164V33.3984Z" fill="#242424"/>
        <path fill-rule="evenodd" clip-rule="evenodd" d="M29.6875 39.7461H20.3125C19.9219 39.7461 19.5312 39.3555 19.5312 38.9648V31.9336C19.5312 31.543 19.9219 31.1523 20.3125 31.1523H29.6875C30.0781 31.1523 30.3711 31.543 30.3711 31.9336V38.9648C30.3711 39.3555 30.0781 39.7461 29.6875 39.7461ZM20.7031 38.5742H29.1992V32.3242H20.7031V38.5742ZM26.1719 27.2461H23.8281C23.4375 27.2461 23.1445 26.9531 23.1445 26.5625V24.4141C23.1445 24.1211 23.4375 23.8281 23.7305 23.8281H26.2695C26.5625 23.8281 26.8555 24.1211 26.8555 24.4141V26.5625C26.8555 26.9531 26.5625 27.2461 26.1719 27.2461ZM24.3164 26.0742H25.6836V25H24.3164V26.0742Z" fill="#242424"/>
        <path fill-rule="evenodd" clip-rule="evenodd" d="M29.6875 32.3242H20.3125C19.9219 32.3242 19.5312 32.0312 19.5312 31.6406V24.6094C19.5312 24.2188 19.9219 23.8281 20.3125 23.8281H29.6875C30.0781 23.8281 30.3711 24.2188 30.3711 24.6094V31.6406C30.3711 32.0312 30.0781 32.3242 29.6875 32.3242ZM20.7031 31.1523H29.1992V25H20.7031V31.1523ZM39.8438 41.8945H37.5C37.1094 41.8945 36.8164 41.6016 36.8164 41.3086V39.1602C36.8164 38.7695 37.1094 38.5742 37.4023 38.5742H39.9414C40.2344 38.5742 40.5273 38.7695 40.5273 39.1602V41.3086C40.5273 41.6016 40.2344 41.8945 39.8438 41.8945ZM37.9883 40.7227H39.3555V39.7461H37.9883V40.7227Z" fill="#242424"/>
        <path fill-rule="evenodd" clip-rule="evenodd" d="M43.3594 47.0703H33.9844C33.5938 47.0703 33.2031 46.6797 33.2031 46.2891V39.2578C33.2031 38.8672 33.5938 38.5742 33.9844 38.5742H43.3594C43.75 38.5742 44.043 38.8672 44.043 39.2578V46.2891C44.043 46.6797 43.75 47.0703 43.3594 47.0703ZM34.375 45.8984H42.8711V39.7461H34.375V45.8984ZM39.8438 34.5703H37.5C37.1094 34.5703 36.8164 34.2773 36.8164 33.8867V31.7383C36.8164 31.4453 37.1094 31.1523 37.4023 31.1523H39.9414C40.2344 31.1523 40.5273 31.4453 40.5273 31.7383V33.8867C40.5273 34.2773 40.2344 34.5703 39.8438 34.5703ZM37.9883 33.3984H39.3555V32.3242H37.9883V33.3984Z" fill="#242424"/>
        <path fill-rule="evenodd" clip-rule="evenodd" d="M43.3594 39.7461H33.9844C33.5938 39.7461 33.2031 39.3555 33.2031 38.9648V31.9336C33.2031 31.543 33.5938 31.1523 33.9844 31.1523H43.3594C43.75 31.1523 44.043 31.543 44.043 31.9336V38.9648C44.043 39.3555 43.75 39.7461 43.3594 39.7461ZM34.375 38.5742H42.8711V32.3242H34.375V38.5742ZM39.8438 27.2461H37.5C37.1094 27.2461 36.8164 26.9531 36.8164 26.5625V24.4141C36.8164 24.1211 37.1094 23.8281 37.4023 23.8281H39.9414C40.2344 23.8281 40.5273 24.1211 40.5273 24.4141V26.5625C40.5273 26.9531 40.2344 27.2461 39.8438 27.2461ZM37.9883 26.0742H39.3555V25H37.9883V26.0742Z" fill="#242424"/>
        <path fill-rule="evenodd" clip-rule="evenodd" d="M43.3594 32.3242H33.9844C33.5938 32.3242 33.2031 32.0312 33.2031 31.6406V24.6094C33.2031 24.2188 33.5938 23.8281 33.9844 23.8281H43.3594C43.75 23.8281 44.043 24.2188 44.043 24.6094V31.6406C44.043 32.0312 43.75 32.3242 43.3594 32.3242ZM34.375 31.1523H42.8711V25H34.375V31.1523Z" fill="#242424"/>
    </symbol>
    <symbol id="card-icon-8" xmlns="http://www.w3.org/2000/svg" width="50" height="50" viewBox="0 0 50 50" fill="none">
        <path fill-rule="evenodd" clip-rule="evenodd" d="M43.3594 50H9.96094C9.57031 50 9.375 49.707 9.375 49.4141V3.90625C9.375 3.61328 9.57031 3.32031 9.96094 3.32031H35.3516C35.7422 3.32031 35.9375 3.61328 35.9375 3.90625V11.0352H43.3594C43.75 11.0352 43.9453 11.2305 43.9453 11.6211V49.4141C43.9453 49.707 43.75 50 43.3594 50ZM10.5469 48.8281H42.7734V12.207H35.3516C35.0586 12.207 34.7656 11.9141 34.7656 11.6211V4.49219H10.5469V48.8281Z" fill="#242424"/>
        <path fill-rule="evenodd" clip-rule="evenodd" d="M43.3594 12.207H35.3516C35.0586 12.207 34.7656 11.9141 34.7656 11.6211V3.90625C34.7656 3.71094 34.9609 3.41797 35.1562 3.32031C35.3516 3.32031 35.6445 3.32031 35.8398 3.51562L43.75 11.1328C43.9453 11.3281 44.043 11.6211 43.9453 11.8164C43.8477 12.0117 43.6523 12.207 43.3594 12.207ZM35.9375 11.0352H41.8945L35.9375 5.27344V11.0352ZM31.543 11.4258H13.7695C13.4766 11.4258 13.1836 11.1328 13.1836 10.8398V7.22656C13.1836 6.83594 13.4766 6.64062 13.7695 6.64062H31.543C31.9336 6.64062 32.1289 6.83594 32.1289 7.22656V10.8398C32.1289 11.1328 31.9336 11.4258 31.543 11.4258ZM14.3555 10.2539H30.957V7.8125H14.3555V10.2539ZM17.1875 23.6328C15.1367 23.6328 13.3789 21.9727 13.3789 19.8242C13.3789 17.7734 15.1367 16.1133 17.1875 16.1133C19.2383 16.1133 20.8984 17.7734 20.8984 19.8242C20.8984 21.9727 19.2383 23.6328 17.1875 23.6328ZM17.1875 17.2852C15.7227 17.2852 14.5508 18.457 14.5508 19.8242C14.5508 21.2891 15.7227 22.4609 17.1875 22.4609C18.6523 22.4609 19.7266 21.2891 19.7266 19.8242C19.7266 18.457 18.6523 17.2852 17.1875 17.2852ZM17.1875 34.668C15.1367 34.668 13.3789 32.9102 13.3789 30.8594C13.3789 28.8086 15.1367 27.0508 17.1875 27.0508C19.2383 27.0508 20.8984 28.8086 20.8984 30.8594C20.8984 32.9102 19.2383 34.668 17.1875 34.668ZM17.1875 28.2227C15.7227 28.2227 14.5508 29.3945 14.5508 30.8594C14.5508 32.3242 15.7227 33.4961 17.1875 33.4961C18.6523 33.4961 19.7266 32.3242 19.7266 30.8594C19.7266 29.3945 18.6523 28.2227 17.1875 28.2227ZM17.1875 45.6055C15.1367 45.6055 13.3789 43.9453 13.3789 41.8945C13.3789 39.7461 15.1367 38.0859 17.1875 38.0859C19.2383 38.0859 20.8984 39.7461 20.8984 41.8945C20.8984 43.9453 19.2383 45.6055 17.1875 45.6055ZM17.1875 39.2578C15.7227 39.2578 14.5508 40.4297 14.5508 41.8945C14.5508 43.2617 15.7227 44.4336 17.1875 44.4336C18.6523 44.4336 19.7266 43.2617 19.7266 41.8945C19.7266 40.4297 18.6523 39.2578 17.1875 39.2578ZM39.7461 30.1758H24.707C24.4141 30.1758 24.1211 29.8828 24.1211 29.5898C24.1211 29.2969 24.4141 29.0039 24.707 29.0039H39.7461C40.1367 29.0039 40.332 29.2969 40.332 29.5898C40.332 29.8828 40.1367 30.1758 39.7461 30.1758ZM36.6211 32.7148H24.707C24.4141 32.7148 24.1211 32.4219 24.1211 32.1289C24.1211 31.8359 24.4141 31.543 24.707 31.543H36.6211C37.0117 31.543 37.207 31.8359 37.207 32.1289C37.207 32.4219 37.0117 32.7148 36.6211 32.7148ZM39.7461 41.2109H24.707C24.4141 41.2109 24.1211 40.918 24.1211 40.625C24.1211 40.2344 24.4141 40.0391 24.707 40.0391H39.7461C40.1367 40.0391 40.332 40.2344 40.332 40.625C40.332 40.918 40.1367 41.2109 39.7461 41.2109ZM36.6211 43.75H24.707C24.4141 43.75 24.1211 43.457 24.1211 43.1641C24.1211 42.7734 24.4141 42.5781 24.707 42.5781H36.6211C37.0117 42.5781 37.207 42.7734 37.207 43.1641C37.207 43.457 37.0117 43.75 36.6211 43.75ZM32.2266 28.125C28.7109 28.125 25.8789 25.293 25.8789 21.7773C25.8789 18.2617 28.7109 15.4297 32.2266 15.4297C35.7422 15.4297 38.5742 18.2617 38.5742 21.7773C38.5742 25.293 35.7422 28.125 32.2266 28.125ZM32.2266 16.6016C29.3945 16.6016 27.0508 18.8477 27.0508 21.7773C27.0508 24.6094 29.3945 26.9531 32.2266 26.9531C35.1562 26.9531 37.4023 24.6094 37.4023 21.7773C37.4023 18.8477 35.1562 16.6016 32.2266 16.6016Z" fill="#242424"/>
        <path fill-rule="evenodd" clip-rule="evenodd" d="M31.3477 24.1211C31.1523 24.1211 31.0547 24.0234 30.957 23.9258L29.1992 22.2656C29.0039 21.9727 29.0039 21.6797 29.1992 21.3867C29.4922 21.1914 29.7852 21.1914 30.0781 21.3867L31.3477 22.6562L34.4727 19.5312C34.668 19.3359 35.0586 19.3359 35.2539 19.5312C35.5469 19.8242 35.5469 20.2148 35.2539 20.4102L31.7383 23.9258C31.6406 24.0234 31.4453 24.1211 31.3477 24.1211ZM9.96094 47.2656H6.64062C6.25 47.2656 6.05469 46.9727 6.05469 46.6797V0.585938C6.05469 0.292969 6.25 0 6.64062 0H32.0312C32.4219 0 32.6172 0.292969 32.6172 0.585938V3.90625C32.6172 4.19922 32.4219 4.49219 32.0312 4.49219H10.5469V46.6797C10.5469 46.9727 10.2539 47.2656 9.96094 47.2656ZM7.22656 46.0938H9.375V3.90625C9.375 3.61328 9.57031 3.32031 9.96094 3.32031H31.4453V1.17188H7.22656V46.0938Z" fill="#242424"/>
    </symbol>

</svg>
